#!OML:ASF E:\Steps\Project 1\Capture day 1\Session 2\Subject.ASF
:FULLY-SPECIFIED
:DEGREES
139
root -1.47254 17.9694 20.7225 -153.977 -0.716013 178.795
lowerback -27.7853 -2.46414 -6.03306
upperback -0.75573 -1.85132 0.099271
thorax 14.1092 -1.44555 2.65113
lowerneck -2.99488 -3.82957 -0.598587
upperneck 7.74488 -5.25306 4.29623
head 3.15838 -2.39577 1.30923
rclavicle -1.12313e-014 -1.55052e-014
rhumerus -40.82 -16.0355 -77.916
rradius 35.513
rwrist -4.73237
rhand -7.04871 -56.5903
rfingers 7.12502
rthumb 18.824 -85.6994
lclavicle -1.12313e-014 -1.55052e-014
lhumerus -31.18 7.16572 79.2057
lradius 21.3211
lwrist -4.8435
lhand -21.2886 -12.2214
lfingers 7.12502
lthumb 5.09572 17.6974
rfemur -24.5586 5.72305 20.1516
rtibia 8.30324
rfoot -18.2299 -4.31645
rtoes -24.7356
lfemur -23.9681 -6.12052 -23.0248
ltibia 7.76823
lfoot -6.02205 -6.4212
ltoes -21.6126
140
root -1.4736 17.9687 20.721 -153.972 -0.733292 178.81
lowerback -27.927 -2.45087 -5.97059
upperback -0.679496 -1.82989 0.0572061
thorax 14.2593 -1.43253 2.5751
lowerneck -3.04345 -3.8273 -0.496034
upperneck 7.72184 -5.25621 4.29731
head 3.15623 -2.39416 1.29079
rclavicle -4.37326e-015 -9.14409e-015
rhumerus -40.7259 -16.1531 -77.9509
rradius 35.5183
rwrist -4.54385
rhand -6.65709 -56.5745
rfingers 7.12502
rthumb 19.2006 -85.6467
lclavicle -4.37326e-015 -9.14409e-015
lhumerus -31.0657 7.02106 79.2345
lradius 21.5273
lwrist -4.61402
lhand -21.0743 -11.7448
lfingers 7.12502
lthumb 5.30261 18.1689
rfemur -24.5176 5.73822 20.1574
rtibia 8.24869
rfoot -18.1821 -4.37951
rtoes -24.8534
lfemur -23.9237 -6.26346 -22.9692
ltibia 7.67433
lfoot -5.99725 -6.3141
ltoes -21.3571
141
root -1.47422 17.9682 20.7219 -153.959 -0.7683 178.826
lowerback -27.8549 -2.45332 -5.96301
upperback -0.742464 -1.85064 0.069669
thorax 14.1545 -1.44105 2.57892
lowerneck -2.94716 -3.8549 -0.452348
upperneck 7.73484 -5.2896 4.26143
head 3.14052 -2.4105 1.27171
rclavicle 1.2921e-014 1.70955e-014
rhumerus -40.8001 -16.0961 -77.9345
rradius 35.5311
rwrist -4.53217
rhand -6.58448 -56.4609
rfingers 7.12502
rthumb 19.2704 -85.5262
lclavicle 1.2921e-014 1.70955e-014
lhumerus -31.1213 6.94728 79.2755
lradius 21.5853
lwrist -4.66199
lhand -21.1612 -11.8378
lfingers 7.12502
lthumb 5.21867 18.078
rfemur -24.5535 5.59021 20.2192
rtibia 8.2997
rfoot -18.2062 -4.38846
rtoes -25.4781
lfemur -23.9379 -6.3797 -22.9091
ltibia 7.67807
lfoot -6.00774 -6.25813
ltoes -20.4618
142
root -1.47394 17.9736 20.7297 -154.022 -0.788175 178.791
lowerback -27.7462 -2.44961 -5.99198
upperback -0.706689 -1.83024 0.0357957
thorax 14.1422 -1.43011 2.56913
lowerneck -2.85381 -3.91186 -0.375772
upperneck 7.64598 -5.36501 4.23669
head 3.09092 -2.44971 1.24909
rclavicle 7.95139e-015 5.56597e-015
rhumerus -40.7102 -16.17 -77.9996
rradius 35.5163
rwrist -4.61181
rhand -6.68113 -56.4149
rfingers 7.12502
rthumb 19.1775 -85.4894
lclavicle 7.95139e-015 5.56597e-015
lhumerus -30.9947 6.64751 79.3903
lradius 21.6502
lwrist -4.56733
lhand -21.4426 -11.9432
lfingers 7.12502
lthumb 4.94699 17.979
rfemur -24.5609 5.61745 20.1547
rtibia 8.33102
rfoot -18.1615 -4.47943
rtoes -25.4936
lfemur -23.9768 -6.33516 -22.9371
ltibia 7.82581
lfoot -6.12085 -6.31445
ltoes -20.6191
143
root -1.47346 17.9788 20.7373 -154.043 -0.748977 178.752
lowerback -27.4905 -2.44319 -6.04823
upperback -1.15882 -1.83146 -0.0480217
thorax 14.2632 -1.4469 2.66668
lowerneck -2.92676 -3.92704 -0.344725
upperneck 7.83247 -5.38325 4.13266
head 3.16395 -2.45568 1.20728
rclavicle 5.1684e-015 -1.86858e-014
rhumerus -40.8355 -16.0614 -78.0183
rradius 35.5978
rwrist -4.75919
rhand -6.67754 -56.321
rfingers 7.12502
rthumb 19.1809 -85.3951
lclavicle 5.1684e-015 -1.86858e-014
lhumerus -31.1034 6.4147 79.4936
lradius 21.8276
lwrist -4.37518
lhand -21.6643 -12.0116
lfingers 7.12502
lthumb 4.73292 17.9156
rfemur -24.6394 5.77162 20.0417
rtibia 8.4008
rfoot -18.1475 -4.59641
rtoes -25.2371
lfemur -24.0409 -6.3058 -22.9685
ltibia 7.9044
lfoot -6.12536 -6.30165
ltoes -20.8733
144
root -1.47381 17.9772 20.735 -153.942 -0.761284 178.812
lowerback -27.7283 -2.47269 -5.96816
upperback -0.75648 -1.88146 0.0664583
thorax 14.0816 -1.45282 2.57052
lowerneck -3.08093 -3.88906 -0.435131
upperneck 7.89894 -5.33575 4.16322
head 3.21908 -2.43156 1.23207
rclavicle 2.88238e-015 1.59028e-015
rhumerus -40.7185 -15.9434 -78.0604
rradius 35.6376
rwrist -4.62684
rhand -6.9951 -55.6027
rfingers 7.12502
rthumb 18.8755 -84.7069
lclavicle 2.88238e-015 1.59028e-015
lhumerus -30.9794 6.56978 79.4719
lradius 21.9256
lwrist -4.53439
lhand -21.6273 -12.1862
lfingers 7.12502
lthumb 4.76868 17.7401
rfemur -24.7427 5.68797 20.1435
rtibia 8.43956
rfoot -18.2133 -4.48279
rtoes -25.345
lfemur -24.1233 -6.33658 -22.8866
ltibia 7.84634
lfoot -5.99431 -6.29432
ltoes -20.2295
